<svg style="background:#ccc" width="500" height="500" xmlns="http://www.w3.org/2000/svg">
    <!-- <rect width="100" height="100" fill="red" stroke="#333" stroke-width="3" x="100" y="100" />
    <circle cx="300" cy="300" r="50" fill="#fff" stroke="#000" stroke-width="3" />
    <ellipse rx="100" ry="50" fill="yellow" stroke="#000" stroke-width="3" cx="250" cy="250" />
    <line x1="0" x2="100" y1="0" y2="100" stroke="#000" stroke-width="3" />
    <polyline points="100,0,200,0,300,400,100,400" stroke="#000" stroke-width="3" fill="transparent" />
    <polygon points="0,0,200,200,300,100" fill="transparent" stroke="#000" stroke-width="3" />
    <path d="M 0 0 L 100 100 L200 300 Z" /> -->
    <!-- <circle cx="250" cy="250" r="200" stroke="#000" stroke-width="3" fill="transparent" /> -->
    <path d="M 250 50 A 100 100 0 0 1 250 250 A 100 100 0 0 0 250 450 A200 200 0 0 1 250 50" fill="#000" />
    <path d="M 250 50 A 100 100 0 0 1 250 250 A 100 100 0 0 0 250 450 A200 200 0 0 0 250 50" fill="#fff" />
    <circle cx="250" cy="150" r="30" fill="#fff" />
    <circle cx="250" cy="350" r="30" fill="#000" />

</svg>